<svg width="370" height="88" viewBox="0 0 370 88" fill="none" xmlns="http://www.w3.org/2000/svg">
<rect width="370" height="87.5192" rx="43.7596" fill="#171632"/>
<path d="M133.27 37.8477V34.8051H147.605V37.8477H142.262V52.2596H138.614V37.8477H133.27ZM153.966 52.5153C152.619 52.5153 151.46 52.2426 150.488 51.6971C149.522 51.146 148.778 50.3676 148.255 49.3619C147.733 48.3506 147.471 47.1545 147.471 45.7738C147.471 44.4273 147.733 43.2454 148.255 42.2284C148.778 41.2113 149.514 40.4187 150.463 39.8506C151.417 39.2824 152.537 38.9983 153.821 38.9983C154.684 38.9983 155.488 39.1375 156.233 39.4159C156.983 39.6886 157.636 40.1006 158.193 40.6517C158.755 41.2028 159.193 41.896 159.505 42.7312C159.818 43.5608 159.974 44.5324 159.974 45.646V46.6432H148.92V44.3932H156.556C156.556 43.8704 156.443 43.4074 156.216 43.004C155.988 42.6006 155.673 42.2852 155.27 42.0579C154.872 41.825 154.409 41.7085 153.88 41.7085C153.329 41.7085 152.841 41.8363 152.414 42.092C151.994 42.342 151.664 42.6801 151.426 43.1062C151.187 43.5267 151.065 43.9954 151.059 44.5125V46.6517C151.059 47.2994 151.179 47.8591 151.417 48.3307C151.662 48.8023 152.005 49.1659 152.449 49.4216C152.892 49.6773 153.417 49.8051 154.025 49.8051C154.429 49.8051 154.798 49.7483 155.133 49.6346C155.468 49.521 155.755 49.3506 155.994 49.1233C156.233 48.896 156.414 48.6176 156.539 48.2881L159.897 48.5096C159.727 49.3165 159.377 50.021 158.849 50.6233C158.326 51.2199 157.65 51.6858 156.821 52.021C155.997 52.3506 155.045 52.5153 153.966 52.5153ZM173.235 42.9017L169.912 43.1062C169.855 42.8221 169.733 42.5665 169.545 42.3392C169.358 42.1062 169.11 41.9216 168.804 41.7852C168.502 41.6432 168.142 41.5721 167.721 41.5721C167.159 41.5721 166.684 41.6915 166.298 41.9301C165.912 42.1631 165.718 42.4756 165.718 42.8676C165.718 43.1801 165.843 43.4443 166.093 43.6602C166.343 43.8761 166.772 44.0494 167.38 44.1801L169.75 44.6574C171.022 44.9187 171.971 45.3392 172.596 45.9187C173.221 46.4983 173.534 47.2596 173.534 48.2028C173.534 49.0608 173.281 49.8136 172.775 50.4613C172.275 51.1091 171.588 51.6148 170.713 51.9784C169.843 52.3363 168.841 52.5153 167.704 52.5153C165.971 52.5153 164.591 52.1545 163.562 51.4329C162.539 50.7057 161.94 49.717 161.764 48.467L165.335 48.2795C165.443 48.8079 165.704 49.2113 166.119 49.4898C166.534 49.7625 167.065 49.8988 167.713 49.8988C168.349 49.8988 168.86 49.7767 169.247 49.5324C169.639 49.2824 169.838 48.9613 169.843 48.5693C169.838 48.2398 169.699 47.9699 169.426 47.7596C169.153 47.5437 168.733 47.379 168.164 47.2653L165.897 46.8136C164.619 46.5579 163.667 46.1148 163.042 45.4841C162.423 44.8534 162.113 44.0494 162.113 43.0721C162.113 42.2312 162.341 41.5068 162.795 40.8988C163.255 40.2909 163.9 39.8221 164.73 39.4926C165.565 39.1631 166.542 38.9983 167.662 38.9983C169.315 38.9983 170.616 39.3477 171.565 40.0466C172.52 40.7454 173.076 41.6971 173.235 42.9017ZM182.783 39.1687V41.896H174.9V39.1687H182.783ZM176.689 36.0324H180.32V48.2369C180.32 48.5721 180.371 48.8335 180.473 49.021C180.576 49.2028 180.718 49.3307 180.9 49.4045C181.087 49.4784 181.303 49.5153 181.547 49.5153C181.718 49.5153 181.888 49.5011 182.059 49.4727C182.229 49.4386 182.36 49.4131 182.451 49.396L183.022 52.0977C182.84 52.1545 182.584 52.2199 182.255 52.2937C181.925 52.3733 181.525 52.4216 181.053 52.4386C180.178 52.4727 179.411 52.3562 178.752 52.0892C178.098 51.8221 177.59 51.4074 177.226 50.8449C176.863 50.2824 176.684 49.5721 176.689 48.7142V36.0324ZM193.779 52.2596H189.825L195.85 34.8051H200.606L206.623 52.2596H202.669L198.297 38.7937H198.16L193.779 52.2596ZM193.532 45.3988H202.873V48.2795H193.532V45.3988ZM208.656 57.1687V39.1687H212.235V41.3676H212.397C212.556 41.0153 212.787 40.6574 213.088 40.2937C213.395 39.9244 213.792 39.6176 214.281 39.3733C214.775 39.1233 215.389 38.9983 216.122 38.9983C217.076 38.9983 217.957 39.2483 218.764 39.7483C219.571 40.2426 220.216 40.9898 220.699 41.9898C221.181 42.9841 221.423 44.2312 221.423 45.7312C221.423 47.1915 221.187 48.4244 220.716 49.4301C220.25 50.4301 219.613 51.1886 218.806 51.7057C218.005 52.217 217.108 52.4727 216.113 52.4727C215.409 52.4727 214.809 52.3562 214.315 52.1233C213.826 51.8903 213.426 51.5977 213.113 51.2454C212.801 50.8875 212.562 50.5267 212.397 50.1631H212.287V57.1687H208.656ZM212.21 45.7142C212.21 46.4926 212.318 47.1716 212.534 47.7511C212.75 48.3307 213.062 48.7824 213.471 49.1062C213.88 49.4244 214.377 49.5835 214.963 49.5835C215.554 49.5835 216.054 49.4216 216.463 49.0977C216.872 48.7682 217.181 48.3136 217.392 47.7341C217.608 47.1488 217.716 46.4756 217.716 45.7142C217.716 44.9585 217.61 44.2937 217.4 43.7199C217.19 43.146 216.88 42.6971 216.471 42.3733C216.062 42.0494 215.559 41.8875 214.963 41.8875C214.372 41.8875 213.872 42.0437 213.463 42.3562C213.059 42.6687 212.75 43.1119 212.534 43.6858C212.318 44.2596 212.21 44.9358 212.21 45.7142ZM223.843 57.1687V39.1687H227.423V41.3676H227.585C227.744 41.0153 227.974 40.6574 228.275 40.2937C228.582 39.9244 228.98 39.6176 229.468 39.3733C229.963 39.1233 230.576 38.9983 231.309 38.9983C232.264 38.9983 233.145 39.2483 233.951 39.7483C234.758 40.2426 235.403 40.9898 235.886 41.9898C236.369 42.9841 236.61 44.2312 236.61 45.7312C236.61 47.1915 236.375 48.4244 235.903 49.4301C235.437 50.4301 234.801 51.1886 233.994 51.7057C233.193 52.217 232.295 52.4727 231.301 52.4727C230.596 52.4727 229.997 52.3562 229.502 52.1233C229.014 51.8903 228.613 51.5977 228.301 51.2454C227.988 50.8875 227.75 50.5267 227.585 50.1631H227.474V57.1687H223.843ZM227.397 45.7142C227.397 46.4926 227.505 47.1716 227.721 47.7511C227.937 48.3307 228.25 48.7824 228.659 49.1062C229.068 49.4244 229.565 49.5835 230.15 49.5835C230.741 49.5835 231.241 49.4216 231.65 49.0977C232.059 48.7682 232.369 48.3136 232.579 47.7341C232.795 47.1488 232.903 46.4756 232.903 45.7142C232.903 44.9585 232.798 44.2937 232.588 43.7199C232.377 43.146 232.068 42.6971 231.659 42.3733C231.25 42.0494 230.747 41.8875 230.15 41.8875C229.559 41.8875 229.059 42.0437 228.65 42.3562C228.247 42.6687 227.937 43.1119 227.721 43.6858C227.505 44.2596 227.397 44.9358 227.397 45.7142Z" fill="white"/>
</svg>
